<?xml version="1.0" standalone="no"?><!DOCTYPE svg PUBLIC "-//W3C//DTD SVG 1.1//EN" "http://www.w3.org/Graphics/SVG/1.1/DTD/svg11.dtd"><svg t="1672283575453" class="icon" viewBox="0 0 1024 1024" version="1.1" xmlns="http://www.w3.org/2000/svg" p-id="4175" xmlns:xlink="http://www.w3.org/1999/xlink" width="200" height="200"><path d="M861.184 102.4C894.4896 102.4 921.6 128.64 921.6 160.896v575.2064c0 32.256-27.1104 58.4704-60.416 58.4704h-236.2624v60.032h87.9104c17.8688 0 32.4096 14.7456 32.4096 32.8704 0 18.1248-14.5408 32.8704-32.4096 32.8704H315.7248a32.6656 32.6656 0 0 1-32.4096-32.8704c0-18.1248 14.5408-32.8704 32.4096-32.8704h87.9104v-60.032H162.816c-33.3056 0-60.416-26.2144-60.416-58.4704V160.8704C102.4 128.6656 129.5104 102.4 162.816 102.4h698.368zM568.32 794.5728h-107.5712v60.032h107.5456v-60.032z m227.1744-616.832H230.9888a51.2 51.2 0 0 0-51.2 51.2V665.344a51.2 51.2 0 0 0 51.2 51.2h564.48a51.2 51.2 0 0 0 51.2-51.2V228.9408a51.2 51.2 0 0 0-51.2-51.2z m51.2 378.368v79.7184H179.7888v-79.7184h666.88zM322.6624 256c41.1648 0 66.6624 32.256 66.6624 68.8128 0 2.1504-1.2288 3.9936-3.6864 3.9936l-47.0016 2.1504c-1.8432 0-3.072-0.9216-3.6864-3.3792-1.8432-7.3728-4.9152-11.0592-9.216-11.0592-3.072 0-4.608 2.4576-4.608 5.5296 0 9.8304 14.4384 20.8896 32.8704 33.4848 19.968 13.5168 35.0208 35.6352 35.0208 58.368 0 41.1648-24.576 74.0352-64.8192 74.0352-46.6944 0-68.1984-33.792-68.1984-82.944 0-1.536 1.2288-3.072 3.6864-3.072l42.3936-2.1504c2.1504 0 3.3792 1.2288 3.6864 3.9936 1.2288 12.288 6.4512 25.4976 13.824 25.4976 4.3008 0 7.0656-2.7648 7.0656-9.8304 0-7.3728-17.2032-20.8896-37.7856-37.4784-20.5824-16.5888-30.72-39.6288-30.72-60.5184 0-31.3344 23.3472-65.4336 64.512-65.4336z m353.5872 0c41.1648 0 66.6624 32.256 66.6624 68.8128 0 2.1504-1.2288 3.9936-3.6864 3.9936l-47.0016 2.1504c-1.8432 0-3.072-0.9216-3.6864-3.3792-1.8432-7.3728-4.9152-11.0592-9.216-11.0592-3.072 0-4.608 2.4576-4.608 5.5296 0 9.8304 14.4384 20.8896 32.8704 33.4848 19.968 13.5168 35.0208 35.6352 35.0208 58.368 0 41.1648-24.576 74.0352-64.8192 74.0352-46.6944 0-68.1984-33.792-68.1984-82.944 0-1.536 1.2288-3.072 3.6864-3.072l42.3936-2.1504c2.1504 0 3.3792 1.2288 3.6864 3.9936 1.2288 12.288 6.4512 25.4976 13.824 25.4976 4.3008 0 7.0656-2.7648 7.0656-9.8304 0-7.3728-17.2032-20.8896-37.7856-37.4784-20.5824-16.5888-30.72-39.6288-30.72-60.5184 0-31.3344 23.3472-65.4336 64.512-65.4336z m-191.6928 0.6144c1.536 0 2.7648 1.2288 3.072 3.072l9.216 61.1328c0.3072 2.1504 0.9216 3.072 1.536 3.072s1.2288-1.2288 1.2288-3.3792l7.3728-60.5184c0.3072-1.8432 1.536-3.3792 3.3792-3.3792h85.4016c2.1504 0 3.3792 1.2288 3.3792 3.3792v223.9488c0 1.8432-1.536 3.072-3.3792 3.072H540.16c-1.8432 0-3.3792-1.2288-3.3792-3.3792v-96.1536c0-2.4576-0.3072-3.3792-0.9216-3.3792-0.6144 0-1.2288 1.2288-2.1504 6.144l-15.9744 94.3104c-0.3072 1.8432-1.8432 2.4576-3.3792 2.4576h-34.7136c-1.536 0-2.7648-1.2288-3.3792-3.3792l-14.1312-87.8592c-0.9216-5.2224-2.1504-6.144-3.072-6.144-0.9216 0-1.536 1.536-1.536 3.9936v90.0096c0 2.1504-0.9216 3.3792-3.072 3.3792h-52.224c-1.2288 0-2.4576-1.536-2.4576-2.7648v-224.5632c0-1.536 0.9216-3.072 2.4576-3.072z" fill="#1296db" p-id="4176"></path></svg>